<?xml version="1.0" encoding="utf-8"?>
<!-- Generator: Adobe Illustrator 25.2.3, SVG Export Plug-In . SVG Version: 6.00 Build 0)  -->
<svg version="1.1" xmlns="http://www.w3.org/2000/svg" xmlns:xlink="http://www.w3.org/1999/xlink" x="0px" y="0px"
	 viewBox="0 0 1000 1080" enable-background="new 0 0 1000 1080" xml:space="preserve">
<g id="beer">
	<rect id="beer_x5F_fill" x="141.1" y="89.7" fill="#F8B123" width="638" height="849"/>
</g>
<g id="glass">
	
		<image overflow="visible" width="564" height="564" xlink:href="91A137A8.jpg"  transform="matrix(1.7979 0 0 1.7979 -1586.9009 69.7255)">
	</image>
	<g>
		<g>
			<path d="M142.4,870.6c-2.5,19-4.3,38.1-5.4,57.3c-0.5,9.6-0.9,19.1-0.8,28.7c0,4.8,0.2,9.6,0.4,14.3c0.3,4.7,1.2,9.3,2.6,13.8
				c1.4,4.5,3.2,8.8,5.6,12.8c2.3,4,5.2,7.8,8.3,11.2c3.2,3.4,6.7,6.5,10.6,9c3.9,2.6,8,4.6,12.4,6.5l3.3,1.5
				c1.1,0.5,2.2,0.9,3.3,1.3l6.6,2.6l6.7,2.4l3.4,1.2l3.4,1.1l6.8,2.2c2.3,0.7,4.6,1.4,6.9,2c2.3,0.7,4.6,1.4,6.9,2l6.9,1.8
				c37,9.7,74.8,15.6,112.8,19.8c19,2,38.1,3.4,57.2,4.3l14.3,0.6l14.3,0.3c4.8,0.1,9.6,0.1,14.3,0.2c4.8,0,9.6,0.1,14.3,0
				c76.4-0.5,152.8-9.7,226.7-28.8l13.8-3.7c4.6-1.2,9.1-2.7,13.7-4c4.5-1.4,9.3-2.7,13.4-4.3c1.1-0.3,2.1-0.8,3.1-1.3l3.1-1.4
				c1-0.5,2-1.1,3-1.6c1-0.5,2-1,3-1.6c7.8-4.6,14.7-10.5,20.6-17.4c0.8-0.8,1.4-1.8,2.1-2.6l2.1-2.7l1.9-2.8
				c0.6-0.9,1.3-1.9,1.8-2.9c1.1-2,2.3-3.9,3.2-6l1.4-3.1c0.4-1,0.8-2.1,1.2-3.2c0.4-1.1,0.9-2.1,1.2-3.2l1-3.2l0.5-1.6l0.4-1.7
				l0.7-3.3c0.3-1.1,0.4-2.2,0.6-3.3l0.5-3.4l0.7-7.1c0.8-9.4,1.3-18.9,1.3-28.3c0-9.5-0.3-18.9-1.1-28.3c-0.4-4.7-0.9-9.4-1.5-14.1
				c-0.3-2.3-0.7-4.7-1-7c-0.4-2.3-0.8-4.7-1.2-6.8l9.6-1l0,0.5l0,0.3l-0.1,0.6c-0.1,0.4-0.1,0.6-0.2,1c-0.1,0.6-0.3,1.2-0.5,1.7
				c-0.2,0.6-0.4,1.1-0.6,1.6c-0.2,0.5-0.4,1-0.7,1.5l-0.7,1.4c-0.3,0.5-0.5,0.9-0.8,1.3l-0.8,1.3l-0.9,1.2c-2.4,3.3-5,6.1-7.9,8.6
				c-5.7,5.1-11.9,9.2-18.3,12.9c-12.8,7.2-26.3,12.7-39.9,17.3c-13.7,4.6-27.6,8.3-41.5,11.7c-7,1.6-14,3.2-21,4.6
				c-3.5,0.7-7,1.5-10.5,2.1l-10.6,1.9c-28.2,4.9-56.5,8.6-84.9,11.4c-3.6,0.3-7.1,0.7-10.7,1.1l-10.7,0.9
				c-7.1,0.6-14.2,1.3-21.3,1.7l-21.3,1.5l-21.4,1.2l-5.3,0.3l-2.7,0.1l-2.7,0l-10.7,0.1c-7.1,0.1-14.3,0.2-21.4,0l-10.7-0.1
				c-3.6,0-7.1-0.1-10.7-0.2c-7.1-0.3-14.3-0.5-21.4-0.8c-28.5-1.3-57-3.9-85.2-8.6l-10.6-1.8l-10.5-2.1l-5.2-1.1l-5.2-1.2l-5.2-1.2
				c-1.7-0.4-3.5-0.8-5.2-1.3l-10.3-2.8c-3.4-1-6.8-2.2-10.2-3.2l-2.6-0.8l-2.5-0.9l-5-1.8c-3.4-1.2-6.7-2.6-10-4
				c-6.6-2.7-13-5.9-19.3-9.3c-6.2-3.6-12.3-7.3-17.9-11.8c-5.6-4.4-10.9-9.4-15.3-15c-1.2-1.4-2.1-2.9-3.2-4.3
				c-0.5-0.7-0.9-1.5-1.4-2.3l-0.7-1.1l-0.6-1.2c-0.9-1.6-1.6-3.2-2.2-4.9C143.2,874,142.7,872.3,142.4,870.6z M142.4,870.6
				c0.3,1.7,0.9,3.4,1.6,5.1c0.7,1.6,1.5,3.2,2.4,4.8l0.7,1.2l0.7,1.1c0.5,0.7,0.9,1.5,1.5,2.2c1.1,1.4,2.1,2.9,3.3,4.2
				c4.6,5.4,9.9,10.1,15.6,14.4c5.6,4.3,11.8,7.8,18,11.2c6.3,3.2,12.7,6.2,19.3,8.8c26.4,10.3,54.3,16.3,82.3,20.3
				c28.1,4,56.4,6.1,84.8,7c7.1,0.2,14.2,0.3,21.3,0.4c3.5,0.1,7.1,0.1,10.6,0l10.6,0c7.1,0,14.2-0.2,21.3-0.3l10.6-0.2l2.7-0.1
				l2.7-0.2l5.3-0.4l21.2-1.5l21.2-1.7c7.1-0.5,14.1-1.3,21.2-2l10.6-1c3.5-0.4,7.1-0.8,10.6-1.2c28.2-3.1,56.4-6.9,84.2-12
				l10.4-1.9c3.5-0.7,6.9-1.4,10.4-2.1c6.9-1.4,13.8-3,20.7-4.7c13.7-3.4,27.3-7.2,40.6-11.7c13.3-4.6,26.2-10,38.2-16.7
				c5.9-3.4,11.6-7.3,16.5-11.7c1.3-1.1,2.4-2.3,3.5-3.4c0.6-0.6,1-1.2,1.6-1.8c0.5-0.6,1-1.2,1.4-1.9l0.7-0.9l0.6-1
				c0.2-0.3,0.4-0.6,0.6-1l0.5-1c0.2-0.3,0.3-0.6,0.4-0.9c0.1-0.3,0.3-0.6,0.3-0.9c0.1-0.3,0.2-0.6,0.2-0.8c0-0.1,0.1-0.3,0.1-0.3
				l0-0.1c0,0,0-0.1,0,0c0,0.1,0,0.1,0,0.2l9.6-1c0.6,2.6,1,4.9,1.4,7.4c0.4,2.4,0.8,4.8,1.1,7.3c0.6,4.8,1.2,9.7,1.6,14.5
				c0.8,9.7,1.2,19.4,1.2,29.2c0,9.7-0.5,19.5-1.3,29.2l-0.7,7.3l-0.5,3.8c-0.2,1.3-0.3,2.5-0.6,3.8l-0.8,3.7l-0.4,1.9l-0.5,1.8
				l-1.1,3.6c-0.3,1.2-0.9,2.4-1.3,3.6c-0.5,1.2-0.9,2.4-1.4,3.5l-1.6,3.4c-1,2.3-2.4,4.5-3.6,6.7c-0.6,1.1-1.3,2.2-2,3.2l-2.1,3.2
				l-2.3,3c-0.8,1-1.5,2-2.4,3c-6.6,7.7-14.4,14.4-23.2,19.5c-1.1,0.7-2.2,1.2-3.3,1.8c-1.1,0.6-2.2,1.2-3.4,1.8l-3.5,1.5
				c-1.2,0.5-2.3,1-3.5,1.4c-4.9,1.8-9.4,3.1-14,4.4c-4.6,1.3-9.2,2.8-13.9,4.1l-14,3.7c-4.7,1.3-9.4,2.4-14.1,3.5
				c-4.7,1.1-9.4,2.3-14.1,3.3c-9.4,2-18.9,4.1-28.4,5.7c-18.9,3.6-38.1,6.3-57.2,8.6l-14.4,1.6c-2.4,0.3-4.8,0.5-7.2,0.7l-7.2,0.6
				c-9.6,0.9-19.2,1.5-28.8,2.1l-14.4,0.7l-7.2,0.3l-7.2,0.2c-4.8,0.1-9.6,0.3-14.4,0.3l-14.5,0.1c-2.4,0-4.8,0-7.2,0l-7.2-0.1
				c-4.8-0.1-9.6-0.1-14.4-0.3l-14.4-0.5l-14.4-0.8c-19.2-1.2-38.4-2.8-57.6-5c-19.1-2.3-38.2-5.1-57.1-8.7
				c-18.9-3.6-37.7-7.8-56.3-13l-7-2c-2.3-0.7-4.6-1.4-6.9-2.1c-2.3-0.7-4.6-1.4-6.9-2.2l-6.8-2.4l-3.4-1.2l-3.4-1.3l-6.8-2.6
				l-6.7-2.8c-1.1-0.5-2.2-0.9-3.3-1.4l-3.3-1.5l-3.3-1.5l-1.6-0.8l-1.6-0.9c-2.2-1.1-4.3-2.5-6.3-3.9c-4.1-2.8-7.8-6.1-11.1-9.8
				c-3.3-3.7-6.2-7.7-8.6-12c-2.4-4.3-4.2-8.9-5.6-13.6c-1.3-4.7-2.2-9.6-2.3-14.5c-0.2-4.9-0.2-9.7-0.1-14.5
				c0.2-9.6,0.8-19.2,1.5-28.8c0.8-9.6,1.8-19.1,3-28.6C139.5,889.5,140.9,880,142.4,870.6z"/>
		</g>
		<path opacity="0.5" fill="#D0D0D0" d="M142.4,870.6c0,0-8.9,58.5-7.2,99.4c1,23,14.5,43.8,35.2,53.9
			c86.6,42.2,331.7,78.1,551.8,9.1c32.2-10.1,55.4-38.3,59.2-71.9c5.9-53.3-3.1-93.2-3.1-93.2s-0.5,67.8-328.4,86.2
			C153.5,961.6,142.4,870.6,142.4,870.6z"/>
		<g>
			<path d="M778.1,853.6c10.9-2.7,21.6-5.8,32.3-9.1c10.7-3.3,21.3-6.9,31.8-10.8c10.5-3.9,20.9-8,31.1-12.6
				c10.2-4.6,20.2-9.6,29.7-15.3l3.6-2.2c1.2-0.7,2.3-1.5,3.5-2.3c1.2-0.8,2.3-1.5,3.5-2.3l3.4-2.4c1.1-0.8,2.2-1.6,3.3-2.5l3.3-2.5
				l3.1-2.7l1.6-1.4l1.5-1.4l2.9-2.9l2.7-3.1c0.9-1,1.7-2.1,2.5-3.2c0.8-1.1,1.7-2.2,2.3-3.3c2.7-4.5,4.6-9.8,6.3-15
				c1.7-5.3,3.2-10.6,4.5-16l1-4.1l0.9-4.1c0.6-2.7,1.2-5.4,1.8-8.2c2.3-10.9,4.3-21.9,6.2-32.9c3.8-22,6.9-44.2,9.7-66.4
				c2.8-22.2,5.2-44.4,7.4-66.7c4.4-44.5,7.7-89.2,9.8-133.8c2.1-44.7,3.2-89.4,2.1-134c-0.6-22.3-1.7-44.6-3.9-66.7
				c-1.1-11.1-2.6-22.1-4.5-32.9l-0.7-4.1l-0.8-4c-0.3-1.3-0.5-2.7-0.8-4l-0.9-4c-0.6-2.7-1.4-5.3-2.1-7.9c-0.3-1.3-0.8-2.6-1.2-3.9
				c-0.4-1.3-0.8-2.6-1.3-3.9l-1.4-3.8c-0.5-1.3-1-2.4-1.5-3.7l-0.8-1.8l-0.9-1.8l-1.9-3.6l-1.9-3.6l-2.1-3.5
				c-1.4-2.3-2.7-4.7-4.3-6.9L957,129c-0.8-1.1-1.5-2.3-2.4-3.3l-5-6.4l-5.4-6c-1.9-1.9-3.9-3.8-5.8-5.7
				c-7.9-7.3-16.8-13.6-26.3-18.4c-9.6-4.8-19.8-8.3-30.4-9.9c-10.5-1.7-21.3-1.6-31.8,0.3l-2,0.3c-0.6,0.1-1.3,0.3-1.9,0.5l-3.9,1
				c-1.3,0.3-2.5,0.8-3.8,1.2l-3.8,1.3l-3.7,1.6c-1.2,0.5-2.5,1-3.6,1.6l-3.5,1.8c-0.6,0.3-1.2,0.6-1.8,0.9l-1.7,1.1
				c-9,5.5-17,12.7-23.4,21.1c-6.4,8.4-11.3,18.1-14.6,28.2l0.2-1L781,156l-1.6,16.9c-1,11.3-2,22.6-2.8,33.8
				c-0.9,11.3-1.7,22.6-2.3,33.9c-0.3,5.6-0.6,11.3-0.9,16.9c-0.3,5.6-0.5,11.3-0.6,16.8l-7.4-4.1c2.7-1.7,5.2-3.1,7.8-4.6
				c2.6-1.4,5.3-2.8,8-4.1c5.4-2.6,11-4.8,16.8-6.6c2.9-0.9,5.9-1.7,8.9-2.2c3-0.6,6.2-1,9.4-1.1c3.2-0.1,6.5,0.2,9.8,0.8
				c3.3,0.7,6.5,2,9.5,3.8c3,1.9,5.5,4.4,7.6,7.1c0.5,0.7,0.9,1.4,1.4,2.1c0.4,0.7,0.9,1.4,1.2,2.2c0.7,1.5,1.4,3,1.9,4.6
				c1,3.1,1.7,6,2.3,9c0.6,2.9,1.1,5.8,1.6,8.7c1.8,11.6,3.1,23.2,4.2,34.8c4.2,46.3,5.9,92.7,6.3,139.2c0.2,23.2,0,46.4-0.9,69.7
				c-0.8,23.2-2.2,46.4-5.2,69.6c-0.7,5.8-1.6,11.6-2.7,17.3c-1.1,5.8-2.3,11.5-4,17.2c-0.5,1.4-0.8,2.9-1.4,4.3l-0.8,2.1
				c-0.3,0.7-0.6,1.4-0.9,2.1c-0.5,1.4-1.3,2.8-2,4.2c-0.8,1.4-1.6,2.7-2.7,4c-0.3,0.3-0.5,0.7-0.8,1l-0.9,0.9
				c-0.3,0.3-0.6,0.6-0.9,0.9L838,658c-1.2,0.9-2.4,1.9-3.8,2.7l-2,1.2l-2.1,1c-1.4,0.7-2.8,1.2-4.3,1.8c-0.7,0.3-1.5,0.5-2.2,0.7
				c-0.8,0.2-1.5,0.5-2.3,0.6c-1.5,0.3-3.1,0.6-4.6,0.7c-3.1,0.4-6.2,0.2-9.2-0.1c-3-0.4-6-1.1-8.9-1.9c-2.9-0.9-5.7-2-8.4-3.3
				c-5.4-2.6-10.5-5.8-15.2-9.3c-2.4-1.8-4.7-3.6-6.9-5.6c-2.2-2-4.3-4-6.4-6.2l3.8-1.6L778.1,853.6z M778.1,853.6l-8.5-106.8
				l-4.3-53.8l-4.2-54l-0.5-6l4.3,4.4c3.9,4,8.3,7.7,12.8,11c4.6,3.3,9.4,6.3,14.5,8.6c2.5,1.2,5.2,2.1,7.8,2.9
				c2.7,0.7,5.3,1.4,8.1,1.6c2.7,0.3,5.4,0.4,8.1,0c1.3-0.1,2.7-0.4,4-0.7c0.7-0.1,1.3-0.4,1.9-0.5c0.6-0.2,1.3-0.3,1.9-0.6
				c1.2-0.5,2.5-0.9,3.7-1.6l1.8-0.9l1.7-1.1c1.2-0.7,2.2-1.5,3.3-2.4l0.8-0.6c0.3-0.2,0.4-0.4,0.6-0.6l0.6-0.6
				c0.2-0.2,0.4-0.5,0.6-0.7c0.8-0.9,1.4-2.1,2.1-3.2c0.6-1.2,1.2-2.4,1.7-3.7c0.3-0.6,0.5-1.3,0.8-1.9l0.7-2c0.5-1.3,0.8-2.7,1.2-4
				c1.5-5.4,2.7-11,3.6-16.7c1-5.6,1.8-11.3,2.4-17c2.6-22.9,3.7-46,4.4-69c0.6-23.1,0.6-46.2,0.2-69.3c-0.4-23.1-1.2-46.2-2.4-69.3
				c-1.2-23.1-2.7-46.2-4.9-69.1c-1.2-11.5-2.4-22.9-4.3-34.2c-0.5-2.8-1-5.6-1.5-8.3c-0.6-2.7-1.2-5.4-2.1-7.9
				c-0.4-1.2-0.9-2.3-1.5-3.4c-0.2-0.6-0.6-1.1-0.9-1.6c-0.3-0.5-0.6-1-1-1.5c-1.4-1.9-3.1-3.5-5-4.7c-2-1.2-4.2-2-6.6-2.5
				c-2.4-0.4-4.9-0.7-7.5-0.5c-2.6,0.1-5.2,0.4-7.9,1c-2.6,0.5-5.3,1.2-7.9,2c-5.2,1.7-10.4,3.8-15.5,6.2c-2.5,1.2-5,2.5-7.5,3.8
				c-2.4,1.3-4.9,2.8-7.2,4.2l-7.6,4.8l0.1-8.9c0.1-5.8,0.3-11.5,0.5-17.2c0.2-5.7,0.5-11.4,0.8-17.1c0.6-11.4,1.4-22.7,2.2-34
				c0.8-11.3,1.8-22.7,2.8-34l1.6-17l1.7-17l0.1-0.5l0.2-0.5c3.6-11.1,8.9-21.8,16.1-31.2c7.1-9.4,16-17.5,26.1-23.7l1.9-1.2
				c0.6-0.4,1.3-0.7,2-1l3.9-2.1c1.3-0.7,2.7-1.2,4-1.8l4.1-1.7l4.2-1.4c1.4-0.4,2.8-1,4.2-1.3l4.3-1.1c0.7-0.2,1.4-0.4,2.2-0.5
				l2.2-0.4c11.6-2.1,23.5-2.1,35.1-0.3c11.6,1.8,22.8,5.6,33.2,10.9c10.4,5.3,20,12.1,28.5,20c2.1,2,4.2,4,6.2,6.1l5.8,6.5
				c1.8,2.3,3.6,4.6,5.4,6.8c0.9,1.1,1.7,2.4,2.5,3.5l2.4,3.6c1.7,2.3,3.1,4.9,4.6,7.4l2.2,3.7l2,3.8l2,3.8l1,1.9l0.9,2
				c0.6,1.4,1.2,2.7,1.7,4.1l1.5,4.1c0.5,1.4,0.9,2.8,1.3,4.1c0.4,1.4,0.9,2.8,1.3,4.1c0.7,2.8,1.5,5.5,2.2,8.3l1,4.2
				c0.3,1.4,0.6,2.8,0.9,4.2l0.8,4.2l0.7,4.2c1.9,11.2,3.3,22.4,4.4,33.7c2.2,22.5,3.1,45,3.6,67.4c0.4,22.5,0.3,44.9-0.3,67.4
				c-0.2,11.2-0.7,22.4-1.1,33.7c-0.5,11.2-1,22.4-1.7,33.6c-2.6,44.8-6.3,89.5-11.1,134.1c-2.4,22.3-5.2,44.6-8.3,66.8
				c-3.1,22.2-6.6,44.4-10.6,66.5c-2,11-4.3,22.1-6.8,33c-0.6,2.7-1.3,5.5-2,8.2l-1,4.1l-1.1,4.1c-1.5,5.4-3,10.9-4.9,16.2
				c-0.9,2.7-1.9,5.3-3,8c-0.6,1.3-1.1,2.6-1.8,3.9l-1,1.9c-0.3,0.6-0.8,1.3-1.2,1.9c-0.7,1.3-1.7,2.4-2.6,3.5
				c-0.9,1.1-1.7,2.3-2.7,3.3l-2.9,3.2l-3.1,3l-1.6,1.5l-1.6,1.4l-3.3,2.7l-3.4,2.6c-1.1,0.9-2.3,1.7-3.4,2.5
				c-2.3,1.6-4.7,3.2-7.1,4.7c-1.2,0.7-2.4,1.5-3.6,2.2l-3.7,2.1c-9.8,5.6-20,10.4-30.3,14.8c-10.3,4.4-20.8,8.4-31.4,12
				c-10.6,3.7-21.3,7-32.1,10C799.9,848.3,789.1,851.1,778.1,853.6z"/>
		</g>
		<g>
			<path d="M534.4,545.5c0,29.4-0.7,58.8-2.5,88.1c-1.7,29.3-4.2,58.7-8.1,87.8c-3.9,29.1-8.8,58.2-16.6,86.7
				c-4,14.2-8.5,28.3-15,41.8c-3.3,6.7-7,13.3-11.9,19.1c-2.5,2.9-5.3,5.6-8.7,7.8c-1.7,1.1-3.5,2-5.5,2.7c-2,0.7-4.1,1-6.2,1.1
				c-2.1,0-4.2-0.3-6.2-0.9c-2-0.6-3.9-1.5-5.6-2.6c-3.4-2.1-6.4-4.8-8.9-7.7c-5.1-5.8-9-12.4-12.4-19c-6.8-13.4-11.7-27.5-16-41.7
				c-4.2-14.2-7.6-28.6-10.6-43.1c-3-14.5-5.5-29-7.6-43.6c-4.2-29.2-7.2-58.6-9.1-88c-1.9-29.4-2.8-58.9-2.8-88.4
				c0.1-29.5,1-59,2.8-88.4c0.9-14.7,2.2-29.4,3.7-44.1c1.5-14.7,3.3-29.3,5.4-43.9c2.1-14.6,4.7-29.2,7.6-43.6
				c3-14.5,6.4-28.9,10.6-43.1c2.1-7.1,4.4-14.2,7-21.1c2.6-7,5.5-13.8,8.9-20.5c3.5-6.7,7.3-13.2,12.4-19c2.6-2.9,5.5-5.6,8.9-7.7
				c1.7-1.1,3.6-1.9,5.6-2.6c2-0.6,4.1-0.9,6.2-0.9c2.1,0.1,4.2,0.4,6.2,1.1c1.9,0.7,3.8,1.6,5.5,2.7c3.4,2.2,6.2,4.9,8.7,7.8
				c4.9,5.9,8.6,12.4,11.9,19.1c6.4,13.4,11,27.6,14.9,41.8c7.8,28.5,12.7,57.5,16.6,86.7c3.9,29.2,6.4,58.5,8.1,87.8
				C533.7,486.7,534.4,516.1,534.4,545.5z M534.4,545.5c-0.1-29.4-1-58.8-2.8-88.1c-1.9-29.3-4.9-58.6-9.1-87.6
				c-2.1-14.5-4.6-29-7.6-43.4c-3-14.4-6.4-28.6-10.5-42.7c-4.2-14-9.1-27.9-15.6-40.8c-3.3-6.4-7.1-12.7-11.7-18
				c-2.3-2.6-4.9-5-7.8-6.7c-1.4-0.9-2.9-1.5-4.4-2.1c-1.5-0.5-3.1-0.7-4.7-0.7c-1.6,0.1-3.1,0.3-4.6,0.8c-1.5,0.5-3,1.2-4.4,2.1
				c-2.8,1.8-5.3,4.2-7.5,6.8c-4.5,5.3-8,11.6-11.2,18.1c-6.2,13-10.7,26.9-14.6,40.9c-7.7,28.1-12.6,57-16.5,86
				c-3.9,29-6.3,58.2-8.1,87.4c-1.7,29.2-2.5,58.5-2.5,87.8c0,29.3,0.7,58.6,2.4,87.8c1.7,29.2,4.2,58.4,8,87.4
				c3.9,29,8.8,57.9,16.5,86c3.9,14,8.4,27.9,14.6,40.9c3.2,6.4,6.7,12.7,11.2,18.1c2.2,2.7,4.8,5.1,7.5,6.8
				c1.4,0.9,2.9,1.6,4.4,2.1c1.5,0.5,3.1,0.7,4.6,0.8c1.6,0,3.1-0.2,4.7-0.7c1.5-0.5,3-1.2,4.5-2.1c2.9-1.7,5.5-4.1,7.8-6.7
				c4.7-5.3,8.4-11.5,11.7-18c6.6-12.9,11.4-26.8,15.6-40.8c4.2-14,7.6-28.3,10.5-42.7c2.9-14.4,5.5-28.8,7.6-43.4
				c4.2-29.1,7.2-58.3,9.1-87.6C533.4,604.2,534.3,574.8,534.4,545.5z"/>
		</g>
		<g>
			<path d="M701.6,549.2c0.1,29-0.6,58.1-2,87.1c-1.4,29-3.5,58-6.7,86.9c-3.3,28.9-7.3,57.7-13.8,86.1c-3.3,14.2-7.1,28.3-12.5,42
				c-1.3,3.4-2.8,6.8-4.5,10.1c-1.6,3.3-3.5,6.6-5.6,9.7c-2.1,3.1-4.5,6.1-7.6,8.7c-1.6,1.2-3.2,2.4-5.2,3.2c-1.9,0.8-4,1.3-6.2,1.4
				c-2.2,0-4.3-0.5-6.3-1.3c-2-0.8-3.7-1.9-5.3-3.1c-3.1-2.5-5.6-5.5-7.8-8.6c-2.2-3.1-4.1-6.3-5.8-9.6c-1.7-3.3-3.3-6.7-4.7-10.1
				c-5.7-13.6-9.9-27.7-13.5-41.9c-3.6-14.2-6.5-28.5-9-42.9c-2.5-14.4-4.7-28.8-6.5-43.3c-3.6-28.9-6.1-58-7.8-87
				c-1.6-29.1-2.3-58.2-2.4-87.3c0.1-29.1,0.8-58.2,2.4-87.3c0.8-14.5,1.9-29.1,3.1-43.6c1.3-14.5,2.8-29,4.6-43.5
				c1.8-14.5,4-28.9,6.5-43.3c2.5-14.4,5.4-28.7,9-42.9c3.6-14.2,7.8-28.3,13.5-41.9c1.4-3.4,3-6.8,4.7-10.1
				c1.7-3.3,3.6-6.5,5.8-9.6c2.2-3.1,4.7-6.1,7.8-8.6c1.6-1.2,3.3-2.4,5.3-3.1c2-0.8,4.1-1.3,6.3-1.3c2.2,0,4.3,0.6,6.2,1.4
				c2,0.8,3.6,2,5.2,3.2c3,2.6,5.5,5.5,7.6,8.7c2.1,3.1,3.9,6.4,5.6,9.7c1.6,3.3,3.1,6.7,4.5,10.1c5.4,13.7,9.2,27.8,12.5,42
				c6.5,28.4,10.6,57.2,13.8,86.1c3.2,28.9,5.3,57.9,6.7,86.9C701,491.1,701.7,520.1,701.6,549.2z M701.6,549.2
				c-0.1-29-0.8-58.1-2.4-87c-1.6-29-4.2-57.9-7.7-86.7c-1.8-14.4-3.9-28.7-6.4-43c-2.5-14.3-5.4-28.5-8.9-42.5
				c-3.5-14-7.7-27.9-13.2-41.2c-1.4-3.3-2.9-6.6-4.6-9.7c-1.7-3.1-3.4-6.2-5.5-9c-2-2.8-4.3-5.5-6.9-7.5c-1.3-1-2.7-1.9-4.1-2.4
				c-1.4-0.6-2.9-0.9-4.3-0.9c-1.5,0-2.9,0.4-4.3,1c-1.4,0.6-2.7,1.5-4,2.5c-2.5,2.1-4.7,4.8-6.6,7.6c-1.9,2.9-3.6,5.9-5.2,9.1
				c-1.6,3.2-3,6.4-4.3,9.7c-5.2,13.3-9,27.2-12.2,41.2c-6.4,28.1-10.5,56.8-13.7,85.5c-3.2,28.7-5.3,57.6-6.7,86.5
				c-1.5,28.9-2.1,57.9-2,86.8c-0.1,28.9,0.6,57.9,2,86.8c1.4,28.9,3.5,57.8,6.7,86.5c3.2,28.7,7.3,57.4,13.7,85.5
				c3.2,14,7,28,12.2,41.2c1.3,3.3,2.7,6.6,4.3,9.7c1.6,3.2,3.3,6.2,5.2,9.1c1.9,2.9,4.1,5.5,6.6,7.6c1.3,1,2.6,1.9,4,2.5
				c1.4,0.6,2.8,1,4.3,1c1.5,0,2.9-0.3,4.3-0.9c1.4-0.5,2.8-1.5,4.1-2.4c2.6-2.1,4.9-4.7,6.9-7.5c2-2.8,3.8-5.9,5.5-9.1
				c1.7-3.1,3.2-6.4,4.6-9.7c5.6-13.2,9.7-27.1,13.2-41.2c3.5-14,6.4-28.2,8.9-42.5c2.5-14.3,4.7-28.6,6.4-43
				c3.6-28.8,6.1-57.7,7.7-86.7C700.8,607.2,701.5,578.2,701.6,549.2z"/>
		</g>
		<g>
			<path d="M337.5,549.2c0.1,29-0.6,58.1-2,87.1c-1.4,29-3.5,58-6.7,86.9c-3.3,28.9-7.3,57.7-13.8,86.1c-3.3,14.2-7.1,28.3-12.5,42
				c-1.3,3.4-2.8,6.8-4.5,10.1c-1.6,3.3-3.5,6.6-5.6,9.7c-2.1,3.1-4.5,6.1-7.6,8.7c-1.6,1.2-3.2,2.4-5.2,3.2c-1.9,0.8-4,1.3-6.2,1.4
				c-2.2,0-4.3-0.5-6.3-1.3c-2-0.8-3.7-1.9-5.3-3.1c-3.1-2.5-5.6-5.5-7.8-8.6c-2.2-3.1-4.1-6.3-5.8-9.6c-1.7-3.3-3.3-6.7-4.7-10.1
				c-5.7-13.6-9.9-27.7-13.5-41.9c-3.6-14.2-6.5-28.5-9-42.9c-2.5-14.4-4.7-28.8-6.5-43.3c-3.6-28.9-6.1-58-7.8-87
				c-1.6-29.1-2.3-58.2-2.4-87.3c0.1-29.1,0.8-58.2,2.4-87.3c0.8-14.5,1.9-29.1,3.1-43.6c1.3-14.5,2.8-29,4.6-43.5
				c1.8-14.5,4-28.9,6.5-43.3c2.5-14.4,5.4-28.7,9-42.9c3.6-14.2,7.8-28.3,13.5-41.9c1.4-3.4,3-6.8,4.7-10.1
				c1.7-3.3,3.6-6.5,5.8-9.6c2.2-3.1,4.7-6.1,7.8-8.6c1.6-1.2,3.3-2.4,5.3-3.1c2-0.8,4.1-1.3,6.3-1.3c2.2,0,4.3,0.6,6.2,1.4
				c2,0.8,3.6,2,5.2,3.2c3,2.6,5.5,5.5,7.6,8.7c2.1,3.1,3.9,6.4,5.6,9.7c1.6,3.3,3.1,6.7,4.5,10.1c5.4,13.7,9.2,27.8,12.5,42
				c6.5,28.4,10.6,57.2,13.8,86.1c3.2,28.9,5.3,57.9,6.7,86.9C336.9,491.1,337.5,520.1,337.5,549.2z M337.5,549.2
				c-0.1-29-0.8-58.1-2.4-87c-1.6-29-4.2-57.9-7.7-86.7c-1.8-14.4-3.9-28.7-6.4-43c-2.5-14.3-5.4-28.5-8.9-42.5
				c-3.5-14-7.7-27.9-13.2-41.2c-1.4-3.3-2.9-6.6-4.6-9.7c-1.7-3.1-3.4-6.2-5.5-9c-2-2.8-4.3-5.5-6.9-7.5c-1.3-1-2.7-1.9-4.1-2.4
				c-1.4-0.6-2.9-0.9-4.3-0.9c-1.5,0-2.9,0.4-4.3,1c-1.4,0.6-2.7,1.5-4,2.5c-2.5,2.1-4.7,4.8-6.6,7.6c-1.9,2.9-3.6,5.9-5.2,9.1
				c-1.6,3.2-3,6.4-4.3,9.7c-5.2,13.3-9,27.2-12.2,41.2c-6.4,28.1-10.5,56.8-13.7,85.5c-3.2,28.7-5.3,57.6-6.7,86.5
				c-1.5,28.9-2.1,57.9-2,86.8c-0.1,28.9,0.6,57.9,2,86.8c1.4,28.9,3.5,57.8,6.7,86.5c3.2,28.7,7.3,57.4,13.7,85.5
				c3.2,14,7,28,12.2,41.2c1.3,3.3,2.7,6.6,4.3,9.7c1.6,3.2,3.3,6.2,5.2,9.1c1.9,2.9,4.1,5.5,6.6,7.6c1.3,1,2.6,1.9,4,2.5
				c1.4,0.6,2.8,1,4.3,1c1.5,0,2.9-0.3,4.3-0.9c1.4-0.5,2.8-1.5,4.1-2.4c2.6-2.1,4.9-4.7,6.9-7.5c2-2.8,3.8-5.9,5.5-9.1
				c1.7-3.1,3.2-6.4,4.6-9.7c5.6-13.2,9.7-27.1,13.2-41.2c3.5-14,6.4-28.2,8.9-42.5c2.5-14.3,4.7-28.6,6.4-43
				c3.6-28.8,6.1-57.7,7.7-86.7C336.6,607.2,337.4,578.2,337.5,549.2z"/>
		</g>
		<path opacity="0.5" fill="#D0D0D0" d="M777.4,854.3c0,0,129.7-29.4,163.1-77.7c33.4-48.3,81.7-523.9,33.4-626.1
			S805.4,52,777,139.3c-9.3,91-9.8,135.7-9.8,135.7s59.9-39.1,74.8-1.9c14.9,37.2,27.9,354.8-5.6,382.7
			c-33.4,27.9-73.9-16.4-73.9-16.4L777.4,854.3z"/>
		<g>
			<path d="M870.7,110.7c3.3-2.1,7.2-3.5,11.2-4.2c4-0.7,8.2-0.7,12.3-0.1c4.1,0.6,8.1,2,11.8,3.8l2.8,1.4c0.9,0.5,1.8,1.1,2.7,1.6
				c1.8,1.1,3.4,2.3,5.1,3.6c6.5,5.1,11.8,11.5,16.4,18.2c0.6,0.8,1.2,1.7,1.7,2.5l1.6,2.6l1.6,2.6c0.5,0.9,1,1.7,1.5,2.6l2.8,5.4
				c0.9,1.8,1.7,3.6,2.5,5.4c6.5,14.6,10.9,29.9,14,45.3c3,15.4,4.9,31,5.2,46.7c-4.5-15-8.4-30.1-12.9-44.8
				c-4.4-14.8-9.3-29.3-15.5-43.2c-3-7-6.5-13.7-10.4-20c-3.9-6.4-8.3-12.3-13.6-17.4c-1.3-1.2-2.6-2.5-4.1-3.6
				c-0.7-0.6-1.4-1.2-2.2-1.7l-2.3-1.5c-3.1-1.9-6.3-3.6-9.8-4.7c-3.5-1.1-7.2-1.8-10.9-1.9c-0.9,0-1.9,0-2.8,0
				c-0.9,0.1-1.9,0.1-2.8,0.3C874.4,109.8,872.5,110.2,870.7,110.7z"/>
		</g>
		<g>
			<path fill="#EAE9E8" d="M849.7,216.7c3.6-3.3,9.3-4.3,14.5-2.9c2.6,0.7,5,1.9,7.2,3.4c0.5,0.4,1.1,0.8,1.6,1.1
				c0.5,0.4,1,0.8,1.5,1.3c1,0.8,1.9,1.8,2.8,2.7c3.5,3.8,6.2,8,8.5,12.4c2.4,4.4,4.1,8.9,5.7,13.5c3.1,9.2,5,18.6,6.2,28
				c1.1,9.5,1.4,19,0.5,28.5c-3.3-9-5.7-18.1-8.2-27c-2.5-8.9-5-17.8-7.9-26.4c-0.8-2.1-1.5-4.3-2.3-6.4l-1.2-3.1l-1.3-3.1
				c-1.8-4.1-3.7-8-6.1-11.6c-2.4-3.5-5.2-6.8-8.7-8.9c-1.8-1-3.8-1.8-5.9-2.1C854.3,215.9,852,216,849.7,216.7z"/>
		</g>
		<g>
			<path d="M894,364.4c2.9,12.8,4.8,25.7,6.3,38.7c0.8,6.5,1.3,13,1.9,19.5c0.5,6.5,0.8,13.1,1,19.6c0.1,6.6,0.2,13.1,0.1,19.7
				c-0.2,6.6-0.5,13.1-1.1,19.7c-0.6,6.5-1.5,13.1-2.8,19.5c-1.3,6.4-2.9,12.8-5.3,18.9c1.4-6.4,2.3-12.8,2.9-19.3l0.3-2.4l0.2-2.4
				c0.1-1.6,0.3-3.2,0.3-4.9l0.3-4.9l0.2-4.9c0.2-6.5,0.4-13,0.3-19.5c0-6.5-0.1-13-0.3-19.5c-0.1-6.5-0.4-13-0.7-19.5
				c-0.3-6.5-0.7-13-1-19.5L894,364.4z"/>
		</g>
		<g>
			<path d="M678,446.4c2.9,12.8,4.8,25.7,6.3,38.7c0.8,6.5,1.3,13,1.9,19.5c0.5,6.5,0.8,13.1,1,19.6c0.1,6.6,0.2,13.1,0.1,19.7
				c-0.2,6.6-0.5,13.1-1.1,19.7c-0.6,6.5-1.5,13.1-2.8,19.5c-1.3,6.4-2.9,12.8-5.3,18.9c1.4-6.4,2.3-12.8,2.9-19.3l0.3-2.4l0.2-2.4
				c0.1-1.6,0.3-3.2,0.3-4.9l0.3-4.9l0.2-4.9c0.2-6.5,0.4-13,0.3-19.5c0-6.5-0.1-13-0.3-19.5c-0.1-6.5-0.4-13-0.7-19.5
				c-0.3-6.5-0.7-13-1-19.5L678,446.4z"/>
		</g>
		<g>
			<path d="M242.9,602.4l-2.4,28.5c-0.7,9.5-1.4,19-1.8,28.4c-0.4,9.5-0.5,18.9,0,28.4l0.2,3.5c0.1,1.2,0.2,2.3,0.3,3.5
				c0.1,1.2,0.2,2.3,0.4,3.5l0.2,1.8l0.3,1.8c0.6,4.7,1.6,9.3,2.9,14c-2.3-4.2-4-8.8-5.3-13.5c-1.2-4.7-2.2-9.4-2.8-14.2
				c-1.3-9.6-1.5-19.3-1.1-28.9c0.4-9.6,1.4-19.2,2.9-28.7C238.1,621,240,611.5,242.9,602.4z"/>
		</g>
		<g>
			<path fill="#EAE9E8" d="M426.3,333.9c-0.7,9.7-2,19.2-3.2,28.6l-3.9,28c-1.2,9.3-2.4,18.6-3.2,27.9c-0.4,4.7-0.7,9.3-0.8,14
				c-0.1,4.7-0.1,9.4,0.3,14.3c-2.4-4.3-4-9-5.2-13.8c-1.1-4.8-1.8-9.7-2.2-14.6c-0.7-9.8-0.1-19.6,1.2-29.2
				c1.3-9.6,3.4-19.1,6.2-28.4c1.4-4.6,3-9.2,4.7-13.7C421.9,342.7,423.9,338.2,426.3,333.9z"/>
		</g>
		<g>
			<path fill="#EAE9E8" d="M606.8,706.5c2.8,9.4,5,18.6,7.1,27.9l6.3,27.6c2.1,9.1,4.3,18.2,6.9,27.2c1.3,4.5,2.7,8.9,4.2,13.4
				c1.5,4.4,3.3,8.8,5.4,13.3c-3.8-3.1-6.9-7-9.7-11c-2.8-4.1-5.2-8.4-7.2-12.9c-4.1-8.9-7.1-18.3-9.3-27.7
				c-2.2-9.5-3.6-19.1-4.3-28.7c-0.3-4.8-0.5-9.7-0.4-14.5C605.8,716.2,606,711.3,606.8,706.5z"/>
		</g>
		<g>
			<path fill="#EAE9E8" d="M309.3,432.5c2.2,4.4,3.9,8.9,5.4,13.5c1.5,4.6,2.8,9.3,4,14c2.3,9.4,3.8,19,4.6,28.7
				c0.8,9.7,0.8,19.5-0.4,29.2c-0.6,4.9-1.6,9.7-3,14.4c-1.4,4.7-3.3,9.3-5.9,13.5c0.6-4.9,0.9-9.6,1.1-14.3c0.1-4.7,0.1-9.4,0-14
				c-0.3-9.3-0.9-18.7-1.7-28l-2.4-28.2C310.2,451.8,309.5,442.3,309.3,432.5z"/>
		</g>
		<g>
			<path d="M931,719.2c1.1,4.8,1.5,9.8,1.5,14.8c0,5-0.5,10-1.6,14.9c-1.1,4.9-2.7,9.8-5,14.3l-1.9,3.4c-0.3,0.6-0.7,1.1-1.1,1.6
				c-0.4,0.6-0.7,1.1-1.1,1.6c-1.6,2.1-3.3,3.9-5.2,5.7c-1.8,1.8-3.8,3.4-5.8,4.9c-2,1.5-4,3-6.1,4.3c-4.2,2.7-8.5,5.2-13,7.4
				c-8.9,4.4-18.1,8.1-27.6,10.7c8.7-4.5,17.4-9.1,25.7-14.1c4.1-2.5,8.3-5.1,12.2-7.9c3.9-2.8,7.7-5.7,11.1-8.9
				c1.7-1.6,3.3-3.3,4.7-5.1c0.4-0.4,0.7-0.9,1-1.4c0.3-0.5,0.7-0.9,1-1.4l1.8-3c2.3-4.1,4-8.5,5.4-13.1c1.4-4.6,2.3-9.3,3-14.1
				C930.8,729,931.1,724.1,931,719.2z"/>
		</g>
		<g>
			<path fill="#EAE9E8" d="M941.3,554.2c1.3,4.8,2.1,9.7,2.7,14.6c0.6,4.9,0.9,9.8,0.9,14.8c0.1,9.9-0.7,19.8-2.9,29.7l-0.4,1.8
				l-0.5,1.9c-0.4,1.2-0.7,2.5-1.1,3.7c-0.9,2.4-1.8,4.8-2.9,7.1c-1.1,2.3-2.3,4.5-3.5,6.8c-1.3,2.2-2.7,4.3-4.1,6.3
				c-2.9,4.1-6.1,7.9-9.7,11.4l-2.7,2.6c-0.9,0.8-1.8,1.7-2.8,2.5c-1.9,1.6-3.9,3.1-6,4.4c5.3-8.4,10.2-16.6,14.4-25
				c1.1-2.1,2-4.2,3-6.3c0.9-2.2,1.9-4.2,2.6-6.4c0.9-2.1,1.5-4.3,2.3-6.5c0.3-1.1,0.6-2.2,0.9-3.3l0.4-1.6l0.4-1.7
				c2.1-9.1,3.5-18.5,4.9-27.9C938.4,573.5,939.6,563.9,941.3,554.2z"/>
		</g>
		<g>
			<path d="M763.8,951.4c0.2,3-0.4,6.1-1.2,9c-0.8,3-2.1,5.8-3.5,8.5c-2.9,5.4-6.6,10.4-10.9,14.9c-8.5,9-18.6,16.1-29.2,22
				c-10.6,5.9-21.9,10.5-33.4,14.3c-11.5,3.7-23.2,6.6-35.1,8.3c11.2-4.6,22.3-8.8,33.2-13.5c10.9-4.7,21.7-9.6,31.9-15.3
				c10.2-5.7,20.1-12.1,28.8-19.8c4.4-3.9,8.3-8.1,11.8-12.8c1.7-2.4,3.3-4.8,4.6-7.4c0.7-1.3,1.3-2.7,1.8-4
				C763.1,954.3,763.6,952.9,763.8,951.4z"/>
		</g>
		<g>
			<path d="M155.2,940.8c9.2,4.3,18.5,8.4,27.8,12.2c9.4,3.9,18.8,7.5,28.3,10.9c9.5,3.4,19.1,6.7,28.7,9.7
				c9.6,3.1,19.3,5.9,29.1,8.4c4.9,1.3,9.8,2.5,14.7,3.7c4.9,1.1,9.8,2.2,14.8,3.2c4.9,1.1,9.9,1.9,14.9,2.8l7.5,1.2l3.7,0.6
				l3.7,0.5c10,1.5,20,2.4,30.1,3.1l7.6,0.5c2.5,0.1,5.1,0.1,7.6,0.3l3.8,0.1c1.3,0,2.5,0,3.8,0l7.6,0c-5.1,0.3-10.1,0.9-15.2,0.9
				c-2.5,0.1-5.1,0.2-7.6,0.2l-7.6,0c-10.2-0.3-20.3-0.8-30.4-2l-3.8-0.4l-3.8-0.5l-7.6-1.1c-5-0.8-10-1.6-15-2.6
				c-5-0.9-10-2.1-14.9-3.1c-4.9-1.2-9.9-2.3-14.8-3.6c-19.7-5.2-39-11.6-57.9-19.1c-9.4-3.7-18.8-7.8-28-12.1
				C173.1,950.4,164,945.9,155.2,940.8z"/>
		</g>
		<g>
			<path d="M420.8,1039.7c10.4,0.9,20.7,1.8,31.1,2.6c5.2,0.4,10.3,0.8,15.5,1c5.2,0.3,10.4,0.6,15.5,0.8c5.2,0.2,10.4,0.3,15.5,0.3
				c5.2,0,10.3,0,15.5-0.3c5.2-0.3,10.3-0.6,15.4-1.3c5.1-0.6,10.2-1.6,15.2-3.2c-4.7,2.2-9.8,3.6-14.9,4.7
				c-5.1,1-10.3,1.7-15.5,2.2c-10.4,0.9-20.9,0.9-31.3,0.6c-10.4-0.4-20.8-1.2-31.2-2.5C441.3,1043.4,431,1041.8,420.8,1039.7z"/>
		</g>
		<g>
			<path fill="#EAE9E8" d="M511.9,991.8c10.4-1.9,20.7-3.1,31-4.2c10.3-1.1,20.6-2,30.8-3c10.2-1,20.4-2,30.6-3.2
				c5.1-0.6,10.1-1.4,15.2-2.2c5.1-0.9,10.1-2,15.1-3.5c-1,0.8-2.1,1.6-3.2,2.4c-1.1,0.7-2.2,1.5-3.4,2.2c-1.2,0.7-2.3,1.3-3.5,1.9
				l-3.6,1.7c-4.9,2.1-10,3.8-15.1,5.3c-10.3,2.8-20.7,4.5-31.2,5.5c-10.5,1-21,1.3-31.5,0.9c-5.2-0.2-10.5-0.5-15.7-1.1
				C522.3,993.7,517.1,993,511.9,991.8z"/>
		</g>
		<g>
			<path fill="#EAE9E8" d="M207.1,994.8c9.3,2.1,18.1,4.9,27,7.9c8.8,3,17.5,6.1,26.1,9.3l25.8,9.8c8.6,3.2,17.1,6.4,26.3,8.9
				c-4.7,0.9-9.5,0.9-14.3,0.6c-4.8-0.3-9.5-1.1-14.1-2c-9.3-1.9-18.3-4.7-27.1-7.9c-8.8-3.3-17.3-7.1-25.7-11.5
				C222.7,1005.5,214.6,1000.7,207.1,994.8z"/>
		</g>
		<g>
			<path d="M144.3,311.4c2.6,28.7,4.8,57.3,6.8,86c2,28.7,3.8,57.4,5.2,86.1c3,57.5,5.1,115,5.1,172.5c0,28.8-0.5,57.6-1.9,86.3
				c-0.3,7.2-0.8,14.4-1.3,21.6c-0.4,7.2-1.1,14.4-1.7,21.5c-0.3,3.6-0.7,7.2-1.1,10.8l-1.2,10.7l-1.5,10.7l-0.8,5.4
				c-0.2,1.8-0.6,3.6-0.9,5.3l-1.9,10.7c-0.7,3.5-1.6,7.1-2.4,10.6l-1.2,5.3c-0.2,0.9-0.4,1.7-0.5,2.5l-0.4,2.6
				c-0.4,3.4-0.3,6.9,0.3,10.3c1,6.8,4.2,13.1,8.5,18.6c4.3,5.5,9.6,10.1,15.4,14.2c11.6,8.1,24.7,14,38.1,18.8
				c13.4,4.8,27.2,8.6,41.2,11.8c27.9,6.3,56.4,10.1,84.9,12.7c28.6,2.6,57.2,3.8,85.9,4c57.4,0.4,114.8-3.1,171.5-11.1
				c28.3-4.1,56.5-9.3,84-16.8c13.7-3.7,27.3-8,40.5-13.3c6.6-2.6,13-5.5,19.2-8.7c3.1-1.6,6.2-3.3,9.2-5.1c2.9-1.8,5.9-3.7,8.6-5.7
				c2.8-2,5.4-4.2,7.9-6.5c2.4-2.3,4.7-4.7,6.6-7.4c3.9-5.2,6.5-11.1,6.9-17.2c0-0.8,0.1-1.5,0.1-2.3l-0.1-2.3l-0.5-5.4l-1-10.7
				l-2-21.5c-1.3-14.3-2.5-28.7-3.7-43c-1.1-14.4-2.2-28.7-3.1-43.1c-3.7-57.5-5.9-115.1-6.6-172.7c-0.7-57.6,0.3-115.2,2.3-172.8
				l0.8-21.6c0.3-7.2,0.5-14.4,0.9-21.6l2.3-43.1c0.3-7.2,0.9-14.4,1.3-21.6l1.4-21.5l1.4-21.5c0.5-7.2,1.1-14.4,1.6-21.5l3.4-43
				l0.2-2.7c0-0.4,0.1-0.9,0.1-1.3l0-1.1c0.1-1.5-0.2-3-0.5-4.5c-0.7-2.9-2.3-5.6-4.5-7.8c-2.1-2.1-4.9-3.8-7.8-4.5
				c-0.7-0.1-1.5-0.4-2.2-0.4l-1.1-0.1c-0.4,0-0.8,0-1.1,0c-0.4,0-0.8,0-1.1,0l-1.1,0.2c-0.4,0.1-0.7,0.1-1.2,0.2l-1.3,0.3
				l-21.2,4.2c-7.1,1.4-14.1,2.8-21.2,4.1l-21.2,4c-7.1,1.3-14.2,2.5-21.3,3.8l-10.6,1.9l-5.3,0.9l-5.3,0.9l-21.3,3.4
				c-7.1,1.2-14.3,2.1-21.4,3.1l-10.7,1.5c-3.6,0.5-7.1,1-10.7,1.4l-21.5,2.4l-5.4,0.6l-2.7,0.3l-2.7,0.2l-10.8,0.9
				c-7.2,0.6-14.4,1.2-21.5,1.7l-21.6,1l-10.8,0.5l-10.8,0.1l-21.6,0.3l-2.7,0l-2.7-0.1l-5.4-0.1l-10.8-0.3l-10.8-0.3l-5.4-0.1
				c-1.8-0.1-3.6-0.2-5.4-0.3l-21.6-1.3l-10.8-0.7l-10.7-1.1l-21.5-2.1l-5.4-0.5c-1.8-0.2-3.6-0.5-5.4-0.7l-10.7-1.4l-21.4-2.8
				c-3.6-0.4-7.1-1.1-10.7-1.7l-10.6-1.8l-21.3-3.6c-3.6-0.5-7.1-1.3-10.6-2l-10.6-2.1l-21.2-4.3l-5.3-1.1l-5.3-1.2l-10.5-2.4
				l-21-4.9l-10.5-2.4c-3.5-0.8-7.1-0.7-10.5,0.3c-6.9,2-12.4,8-13.9,15c-0.8,3.5-0.3,7.1-0.2,10.7l0.4,10.8
				c0.6,14.4,1.2,28.7,1.8,43.1C141.4,253.9,142.8,282.6,144.3,311.4z M144.3,311.4c-1.5-28.7-3-57.5-4.4-86.2
				c-0.7-14.4-1.3-28.7-1.9-43.1l-0.4-10.8l-0.2-5.4c0-0.9,0-1.8,0-2.7c0.1-0.9,0.2-1.8,0.4-2.7c1.5-7.1,7.1-13.2,14.1-15.3
				c3.5-1.1,7.2-1.2,10.8-0.4l10.5,2.4l21,4.8l10.5,2.4l5.3,1.2l5.3,1l21.2,4.1l10.6,2.1c3.5,0.7,7,1.4,10.6,2l21.3,3.4l10.6,1.7
				c3.5,0.6,7.1,1.2,10.7,1.6l21.4,2.7c57.1,7,114.7,9.6,172.1,6.3l21.5-1.3c7.2-0.6,14.3-1.3,21.5-1.9l10.7-1l2.7-0.3l2.7-0.3
				l5.3-0.7l21.4-2.6c3.6-0.4,7.1-1,10.7-1.5l10.7-1.6c7.1-1.1,14.2-2,21.3-3.3l21.2-3.6l5.3-0.9l5.3-1l10.6-2
				c7.1-1.4,14.1-2.6,21.2-4l21.1-4.3c7-1.4,14.1-2.9,21.1-4.3l21.1-4.4l1.3-0.3c0.4-0.1,1-0.2,1.5-0.2l1.5-0.2c0.5,0,1,0,1.5-0.1
				c0.5,0,1,0,1.6,0l1.5,0.1c1,0.1,2,0.3,3.1,0.5c4,1,7.8,3.1,10.7,6c2.9,2.9,5.2,6.6,6.3,10.6c0.5,2,0.8,4.1,0.8,6.2l0,1.6
				c0,0.5-0.1,0.9-0.1,1.4l-0.2,2.7l-2.9,43c-0.5,7.2-1,14.3-1.4,21.5l-1.2,21.5l-1.2,21.5c-0.4,7.2-0.8,14.3-1.1,21.5l-1.8,43.1
				c-0.3,7.2-0.5,14.4-0.8,21.5l-0.7,21.5c-3.3,114.9-2.1,229.9,5.6,344.6c0.9,14.3,2,28.7,3,43c1.1,14.3,2.3,28.6,3.6,43l1.9,21.5
				l1,10.7l0.5,5.4l0.2,3.1c0,1-0.1,2.1-0.1,3.1c-0.3,4.1-1.3,8.2-2.8,11.9c-1.5,3.8-3.6,7.2-6,10.4c-2.3,3.2-5,6-7.8,8.6
				c-2.8,2.6-5.7,5-8.8,7.2c-6.1,4.4-12.5,8.2-19.1,11.5c-6.6,3.3-13.3,6.3-20.1,9c-13.6,5.3-27.5,9.6-41.6,13.4
				c-28.1,7.4-56.6,12.5-85.2,16.5c-28.6,3.9-57.4,6.4-86.2,8c-28.8,1.5-57.7,2.1-86.5,1.6c-28.8-0.5-57.7-2.1-86.4-5
				c-28.7-2.9-57.3-7.2-85.5-13.8c-14.1-3.4-28-7.3-41.6-12.4c-13.6-5.1-26.9-11.2-38.8-19.8c-5.9-4.3-11.5-9.2-16-15.2
				c-4.5-5.9-7.9-12.9-8.9-20.4c-0.6-3.7-0.6-7.5-0.1-11.2l0.4-2.8c0.2-0.9,0.4-1.8,0.6-2.7l1.2-5.3c0.8-3.5,1.7-7,2.4-10.4l2-10.6
				c0.3-1.8,0.7-3.5,1-5.3l0.8-5.3l1.6-10.6l1.3-10.7c0.4-3.6,0.9-7.1,1.2-10.7c0.7-7.2,1.5-14.3,1.9-21.5
				c0.5-7.2,1.1-14.3,1.5-21.5c1.7-28.7,2.5-57.5,2.6-86.2c0.2-28.8-0.2-57.5-0.9-86.3c-0.7-28.8-1.7-57.5-3.2-86.2
				c-1.4-28.7-3.1-57.5-5.1-86.2C149,368.7,146.8,340,144.3,311.4z"/>
		</g>
		<g>
			<path d="M771.3,145.1c-6.5-1.8-12.9-3.5-19.4-5.1c-6.5-1.6-13-3.2-19.5-4.7c-13.1-3-26.1-5.9-39.3-8.5
				c-13.1-2.7-26.3-5.2-39.4-7.4c-13.2-2.2-26.4-4.4-39.6-6.3c-26.5-3.7-53-6.9-79.6-9.1c-26.6-2.2-53.3-3.7-80-4
				c-26.7-0.5-53.4,0.1-80,1.8c-26.6,1.6-53.2,4.5-79.5,8.5c-52.7,8.2-104.7,21.6-154.7,41.2c48.3-23.5,100.4-39.3,153.4-48.9
				c3.3-0.6,6.6-1.2,10-1.8l10-1.6c3.3-0.6,6.7-1,10-1.4c3.3-0.5,6.7-0.9,10-1.3c13.4-1.7,26.8-3,40.2-4.1c26.9-2,53.9-2.7,80.8-2.3
				c13.5,0.2,26.9,0.8,40.4,1.5c13.4,0.8,26.9,1.7,40.3,3.1c13.4,1.3,26.8,2.9,40.1,4.7c6.7,0.9,13.3,1.8,20,2.8l10,1.6l9.9,1.7
				c13.3,2.3,26.5,4.8,39.6,7.6c13.2,2.8,26.3,5.8,39.3,9c13,3.3,26,6.8,38.9,10.6C745.9,136.4,758.7,140.5,771.3,145.1z"/>
		</g>
		<g opacity="0.95">
			<g>
				
					<ellipse transform="matrix(0.3233 -0.9463 0.9463 0.3233 -52.6365 187.1187)" fill="#FFF2D4" stroke="#FFF2D4" stroke-miterlimit="10" cx="104.5" cy="130.4" rx="81.8" ry="105.8"/>
				
					<ellipse transform="matrix(0.3233 -0.9463 0.9463 0.3233 -164.9861 269.8499)" fill="#FFF2D4" stroke="#FFF2D4" stroke-miterlimit="10" cx="106.2" cy="250.3" rx="75.9" ry="80.7"/>
				
					<ellipse transform="matrix(0.3233 -0.9463 0.9463 0.3233 -231.7704 344.8247)" fill="#FFF2D4" stroke="#FFF2D4" stroke-miterlimit="10" cx="125.2" cy="334.5" rx="47.2" ry="50.8"/>
				
					<ellipse transform="matrix(0.3233 -0.9463 0.9463 0.3233 -287.7075 410.6284)" fill="#FFF2D4" stroke="#FFF2D4" stroke-miterlimit="10" cx="143.3" cy="406.5" rx="36.5" ry="46.6"/>
				
					<ellipse transform="matrix(0.3233 -0.9463 0.9463 0.3233 67.8737 214.3461)" fill="#FFF2D4" stroke="#FFF2D4" stroke-miterlimit="10" cx="183.8" cy="59.7" rx="50.6" ry="84.2"/>
				
					<ellipse transform="matrix(0.3233 -0.9463 0.9463 0.3233 116.4182 366.2777)" fill="#FFF2D4" stroke="#FFF2D4" stroke-miterlimit="10" cx="314.3" cy="101.7" rx="79.4" ry="109.9"/>
				
					<ellipse transform="matrix(0.3233 -0.9463 0.9463 0.3233 -231.6742 431.8477)" fill="#FFF2D4" stroke="#FFF2D4" stroke-miterlimit="10" cx="186.1" cy="377.9" rx="48.2" ry="58.5"/>
				
					<ellipse transform="matrix(0.3233 -0.9463 0.9463 0.3233 61.0211 420.0873)" fill="#FFF2D4" stroke="#FFF2D4" stroke-miterlimit="10" cx="324.2" cy="167.4" rx="73" ry="93.2"/>
				
					<ellipse transform="matrix(0.3233 -0.9463 0.9463 0.3233 -134.1105 422.0112)" fill="#FFF2D4" stroke="#FFF2D4" stroke-miterlimit="10" cx="228" cy="304.8" rx="50.1" ry="46.6"/>
				
					<ellipse transform="matrix(0.3233 -0.9463 0.9463 0.3233 -49.1856 377.9359)" fill="#FFF2D4" stroke="#FFF2D4" stroke-miterlimit="10" cx="239.7" cy="223.4" rx="44.3" ry="52.2"/>
				
					<ellipse transform="matrix(0.3233 -0.9463 0.9463 0.3233 -83.9897 336.8238)" fill="#FFF2D4" stroke="#FFF2D4" stroke-miterlimit="10" cx="193.5" cy="227.1" rx="123.2" ry="57.1"/>
			</g>
			<g>
				<path d="M116.6,74.8c-2.2-1.9-4.5-3.7-6.9-5.4c-2.4-1.6-4.9-3.1-7.6-4.4c-5.2-2.5-10.9-4.2-16.7-3.9c-2.9,0.1-5.7,0.8-8.3,1.9
					c-2.7,1.1-5,2.9-7.2,4.8l-1.6,1.5L66.9,71c-1,1.1-1.8,2.3-2.7,3.4c-0.8,1.2-1.6,2.4-2.4,3.7l-2.1,3.8c0.6-1.3,1.2-2.7,1.9-4
					c0.7-1.3,1.4-2.6,2.2-3.8c0.9-1.2,1.6-2.5,2.6-3.6l1.4-1.7l1.6-1.6c2.1-2,4.6-3.8,7.3-5c2.7-1.2,5.7-1.9,8.7-2.1
					c6-0.3,11.9,1.5,17.1,4.2C107.7,67.1,112.5,70.6,116.6,74.8z"/>
			</g>
			<g>
				<path d="M259.6,128.4c-0.5-1.9-1.1-3.9-1.9-5.7c-0.7-1.9-1.6-3.7-2.6-5.4c-1-1.7-2.2-3.3-3.5-4.7c-1.4-1.4-3-2.6-4.8-3.3
					c-1.8-0.8-3.7-1.1-5.7-0.9c-1.9,0.1-3.9,0.6-5.7,1.3c-0.5,0.2-0.9,0.4-1.4,0.6l-1.3,0.6c-0.9,0.5-1.7,1-2.6,1.5
					c-0.8,0.5-1.7,1.1-2.5,1.6c-0.8,0.6-1.6,1.2-2.4,1.8c3-2.7,6.2-5.2,10-6.8l1.4-0.6l1.5-0.4c0.5-0.2,1-0.2,1.5-0.3
					c0.5-0.1,1-0.2,1.5-0.2c2.1-0.2,4.2,0.1,6.1,0.9c1.9,0.8,3.6,2.1,5,3.6c1.4,1.5,2.6,3.2,3.5,5
					C257.7,120.5,258.9,124.4,259.6,128.4z"/>
			</g>
			<g>
				<path d="M82.5,214.3c-1.5,1.4-2.8,2.8-4.1,4.4c-1.3,1.5-2.4,3.2-3.4,4.9c-1,1.7-1.9,3.5-2.4,5.4c-0.6,1.9-0.8,3.8-0.6,5.8
					c0.2,1.9,0.9,3.8,1.9,5.4c1.1,1.6,2.4,3.1,3.9,4.3c0.4,0.3,0.8,0.6,1.2,0.9l1.2,0.9c0.8,0.5,1.7,1.1,2.6,1.6
					c0.9,0.5,1.8,1,2.7,1.4c0.9,0.4,1.8,0.8,2.7,1.3c-3.8-1.3-7.6-2.9-10.8-5.4l-1.2-1L75,243c-0.4-0.3-0.7-0.8-1-1.2
					c-0.3-0.4-0.7-0.8-0.9-1.3c-1.1-1.7-1.9-3.7-2.1-5.8c-0.2-2.1,0.1-4.2,0.7-6.1c0.6-2,1.5-3.8,2.6-5.5
					C76.5,219.8,79.3,216.8,82.5,214.3z"/>
			</g>
			<g>
				<path d="M376.6,149.8c2.1-3.6,4-7.4,5.6-11.3c1.6-3.9,3-7.9,4-11.9c1-4.1,1.6-8.2,1.5-12.4c-0.1-4.2-0.8-8.3-2.5-12.1
					c-1.7-3.8-4.3-7.1-7.6-9.7c-0.8-0.7-1.7-1.3-2.5-1.8l-1.3-0.9c-0.4-0.3-0.9-0.5-1.4-0.8c-0.9-0.5-1.8-1-2.8-1.4l-2.9-1.2
					c-0.5-0.2-1-0.4-1.5-0.6l-1.5-0.5l-3-0.9c-2-0.5-4.1-1-6.1-1.4c-2.1-0.3-4.1-0.7-6.2-1l-6.3-0.6c8.4,0.3,16.9,1.2,24.9,4.2
					l3,1.1c1,0.5,1.9,1,2.8,1.4c0.5,0.3,1,0.5,1.4,0.8l1.3,0.9c0.9,0.6,1.8,1.1,2.6,1.9c3.3,2.6,6.1,6.1,7.9,10
					c1.8,3.9,2.5,8.2,2.5,12.5c0,4.3-0.6,8.5-1.7,12.6C384.8,135,381.2,142.8,376.6,149.8z"/>
			</g>
			<g>
				<path d="M158.4,306.2c4,1.3,8.1,2.4,12.2,3.1c4.1,0.8,8.3,1.3,12.5,1.4c4.2,0.1,8.4-0.2,12.4-1.1c4-0.9,8-2.6,11.3-5
					c3.3-2.4,6-5.7,7.9-9.4c0.5-0.9,0.9-1.9,1.3-2.8l0.6-1.4c0.2-0.5,0.3-1,0.4-1.5c0.3-1,0.6-2,0.8-3l0.5-3.1
					c0.1-0.5,0.2-1,0.3-1.5l0.1-1.6l0.3-3.1c0-2.1,0.1-4.2,0-6.3c-0.1-2.1-0.2-4.2-0.4-6.3l-0.7-6.3c1.5,8.3,2.4,16.8,1.2,25.2
					l-0.5,3.1c-0.2,1-0.5,2.1-0.8,3.1c-0.2,0.5-0.2,1-0.4,1.5l-0.6,1.5c-0.4,1-0.7,2-1.3,2.9c-1.9,3.8-4.6,7.3-8.1,9.8
					c-3.5,2.6-7.5,4.2-11.7,5.1c-4.2,0.9-8.4,1.2-12.7,1C174.6,311,166.3,309.2,158.4,306.2z"/>
			</g>
		</g>
	</g>
</g>
</svg>
